HIERARCHY
ROOT Hips
{
	OFFSET 54.202000 -7.350934 84.304001
	CHANNELS 6 Xposition Yposition Zposition Xrotation Yrotation Zrotation
	JOINT spine
	{
		OFFSET 0.000000 -0.342408 5.954376
		CHANNELS 3 Xrotation Yrotation Zrotation
		JOINT spine1
		{
			OFFSET 0.000000 -0.000001 8.856018
			CHANNELS 3 Xrotation Yrotation Zrotation
			JOINT spine2
			{
				OFFSET 0.000000 -0.000001 8.485672
				CHANNELS 3 Xrotation Yrotation Zrotation
				JOINT Neck
				{
					OFFSET 0.000000 -1.038703 21.786301
					CHANNELS 3 Xrotation Yrotation Zrotation
					JOINT Head
					{
						OFFSET 0.000000 -0.000001 6.582199
						CHANNELS 3 Xrotation Yrotation Zrotation
						End Site
						{
							OFFSET 0.000000 5.254357 15.932602
						}
					}
				}
				JOINT RightShoulder
				{
					OFFSET -3.573071 0.497524 9.163864
					CHANNELS 3 Xrotation Yrotation Zrotation
					JOINT RightArm
					{
						OFFSET 0.000000 -0.000002 12.019196
						CHANNELS 3 Xrotation Yrotation Zrotation
						JOINT RightArmRoll
						{
							OFFSET 0.000000 -0.000001 6.067551
							CHANNELS 3 Xrotation Yrotation Zrotation
							JOINT RightForeArm
							{
								OFFSET 0.000000 -0.000003 17.672607
								CHANNELS 3 Xrotation Yrotation Zrotation
								JOINT RightForeArmRoll
								{
									OFFSET 0.000000 -0.000001 6.808731
									CHANNELS 3 Xrotation Yrotation Zrotation
									JOINT RightHand
									{
										OFFSET 0.000000 -0.000002 13.663605
										CHANNELS 3 Xrotation Yrotation Zrotation
										End Site
										{
											OFFSET 0.000000 0.000000 0.100006
										}
									}
								}
							}
						}
					}
				}
				JOINT LeftShoulder
				{
					OFFSET 3.573071 0.497524 9.163864
					CHANNELS 3 Xrotation Yrotation Zrotation
					JOINT LeftArm
					{
						OFFSET 0.000000 -0.000002 12.019196
						CHANNELS 3 Xrotation Yrotation Zrotation
						JOINT LeftArmRoll
						{
							OFFSET 0.000000 -0.000001 6.067551
							CHANNELS 3 Xrotation Yrotation Zrotation
							JOINT LeftForeArm
							{
								OFFSET 0.000000 -0.000003 17.672607
								CHANNELS 3 Xrotation Yrotation Zrotation
								JOINT LeftForeArmRoll
								{
									OFFSET 0.000000 -0.000001 6.808716
									CHANNELS 3 Xrotation Yrotation Zrotation
									JOINT LeftHand
									{
										OFFSET 0.000000 -0.000002 13.663605
										CHANNELS 3 Xrotation Yrotation Zrotation
										End Site
										{
											OFFSET 0.000000 0.000000 0.100006
										}
									}
								}
							}
						}
					}
				}
			}
		}
	}
	JOINT RightUpLeg
	{
		OFFSET -5.277740 0.811859 -0.967796
		CHANNELS 3 Xrotation Yrotation Zrotation
		JOINT RightUpLegRoll
		{
			OFFSET 0.000000 -0.000003 16.021400
			CHANNELS 3 Xrotation Yrotation Zrotation
			JOINT RightLeg
			{
				OFFSET 0.000000 0.000003 -19.840103
				CHANNELS 3 Xrotation Yrotation Zrotation
				JOINT RightLegRoll
				{
					OFFSET 0.000000 -0.000003 19.904999
					CHANNELS 3 Xrotation Yrotation Zrotation
					JOINT RightFoot
					{
						OFFSET 0.000000 -0.000003 16.567497
						CHANNELS 3 Xrotation Yrotation Zrotation
						JOINT RightToeBase
						{
							OFFSET 0.000000 -0.000002 13.849602
							CHANNELS 3 Xrotation Yrotation Zrotation
							End Site
							{
								OFFSET 0.005871 0.773116 6.707275
							}
						}
					}
				}
			}
		}
	}
	JOINT LeftUpLeg
	{
		OFFSET 5.277740 0.811859 -0.967796
		CHANNELS 3 Xrotation Yrotation Zrotation
		JOINT LeftUpLegRoll
		{
			OFFSET 0.000000 -0.000003 16.021500
			CHANNELS 3 Xrotation Yrotation Zrotation
			JOINT LeftLeg
			{
				OFFSET 0.000000 -0.000003 19.840004
				CHANNELS 3 Xrotation Yrotation Zrotation
				JOINT LeftLegRoll
				{
					OFFSET 0.000000 -0.000003 20.089005
					CHANNELS 3 Xrotation Yrotation Zrotation
					JOINT LeftFoot
					{
						OFFSET 0.000000 -0.000002 16.383499
						CHANNELS 3 Xrotation Yrotation Zrotation
						JOINT LeftToeBase
						{
							OFFSET 0.000000 -0.000002 13.849594
							CHANNELS 3 Xrotation Yrotation Zrotation
							End Site
							{
								OFFSET -0.026310 0.773116 6.707275
							}
						}
					}
				}
			}
		}
	}
}
MOTION
Frames: 9
Frame Time: 0.041667
50.092506 -5.632665 84.195702 -1.857303 -0.279391 8.253110 -2.363323 0.533351 0.066733 -0.724609 1.067405 0.151331 0.920585 1.069152 0.137548 -1.501034 37.719986 -1.005457 14.367960 -41.595616 -1.643290 -11.145385 13.114956 -5.281445 -494.335050 -178.023758 -454.079309 -0.000003 0.000014 -0.000001 80.535191 2.171964 -4.577162 0.000001 -0.000001 -2.999989 -5.000162 -7.999946 0.000006 -123.756826 77.778875 130.731351 -112.017213 121.129758 99.807662 0.000002 0.000003 -0.000002 -0.027441 -3.637902 1.990808 0.000002 -0.000013 3.011613 -5.000156 7.999939 -0.000018 -1.848922 -182.342815 0.736576 -179.999991 0.000005 -1.055996 171.934330 -1.477242 -0.382319 -0.000001 -0.000005 0.154164 70.683954 6.850016 2.127780 25.456957 -7.355615 0.000000 -5.800886 176.606412 -1.068565 -0.000004 -0.000004 -1.022120 -12.370786 2.614942 0.639133 0.000004 0.000001 -0.191594 70.312406 -6.843673 -2.171969 25.456948 7.355613 -0.000001 
50.104599 -5.642453 84.196899 -1.854972 -0.275822 8.191718 -2.366994 0.530451 0.066056 -0.731939 1.061593 0.150119 0.913254 1.063335 0.136194 -1.366669 37.521521 -1.043893 14.216143 -41.392347 -1.686246 -11.187710 13.042922 -5.395537 -494.603832 -177.689857 -454.095647 -0.000004 0.000014 -0.000001 80.443543 2.175473 -4.575742 0.000001 -0.000002 -2.999988 -5.000162 -7.999947 0.000007 -123.398842 77.853877 130.357958 -111.909876 121.009956 99.736888 0.000004 0.000005 0.000001 -0.027451 -3.637898 1.990807 0.000002 -0.000013 3.011610 -5.000154 7.999938 -0.000019 -1.854820 -182.328799 0.744312 -179.999991 0.000005 -1.055996 171.927719 -1.480194 -0.382912 -0.000001 -0.000004 0.154413 70.682875 6.849972 2.127641 25.456955 -7.355615 0.000000 -5.785443 176.614294 -1.067106 -0.000005 -0.000004 -1.022218 -12.367600 2.616527 0.639111 0.000005 0.000001 -0.191578 70.314619 -6.843617 -2.171921 25.456950 7.355613 -0.000000 
50.134502 -5.680163 84.183594 -1.852918 -0.270782 8.129691 -2.370562 0.527041 0.065354 -0.739058 1.054702 0.148878 0.906133 1.056427 0.134800 -1.232422 37.326707 -1.080011 14.061690 -41.192505 -1.727824 -11.230761 12.971267 -5.511474 -494.869171 -177.364754 -454.112941 -0.000003 0.000014 -0.000000 80.334445 2.179715 -4.573986 0.000001 -0.000002 -2.999989 -5.000163 -7.999949 0.000005 -123.038399 77.927991 129.982243 -111.800634 120.890715 99.664823 0.000002 0.000004 0.000001 -0.027478 -3.637899 1.990806 -0.000000 -0.000013 3.011613 -5.000155 7.999938 -0.000021 -1.860078 -182.316805 0.751302 -179.999991 0.000005 -1.055997 171.922787 -1.483151 -0.382464 -0.000001 -0.000004 0.154662 70.680833 6.849890 2.127651 25.456959 -7.355617 0.000000 -5.770780 176.622162 -1.066513 -0.000005 -0.000005 -1.022330 -12.366111 2.618055 0.639185 0.000004 0.000001 -0.191560 70.317248 -6.843569 -2.171952 25.456957 7.355612 -0.000001 
50.151608 -5.688494 84.187309 -1.851040 -0.264549 8.067139 -2.374030 0.523237 0.064627 -0.745985 1.046981 0.147607 0.899204 1.048691 0.133374 -1.098405 37.134328 -1.114162 13.904772 -40.994949 -1.768519 -11.274509 12.899202 -5.629230 -495.132106 -177.046631 -454.131519 -0.000003 0.000014 -0.000001 80.210265 2.184579 -4.572081 0.000001 -0.000001 -2.999989 -5.000162 -7.999945 0.000005 -122.672424 78.001621 129.601036 -111.688360 120.771815 99.590756 0.000003 0.000003 -0.000003 -0.027511 -3.637902 1.990814 0.000001 -0.000014 3.011610 -5.000154 7.999938 -0.000021 -1.864987 -182.305809 0.757714 -179.999991 0.000005 -1.055997 171.918976 -1.487087 -0.383124 -0.000001 -0.000004 0.154910 70.678142 6.849802 2.127503 25.456957 -7.355617 0.000000 -5.756851 176.628050 -1.066386 -0.000005 -0.000004 -1.022438 -12.365826 2.619524 0.639335 0.000004 0.000001 -0.191544 70.320103 -6.843526 -2.171968 25.456953 7.355613 -0.000001 
50.161709 -5.696933 84.199409 -1.849228 -0.257397 8.004160 -2.377408 0.519161 0.063881 -0.752736 1.038660 0.146313 0.892451 1.040354 0.131918 -0.964721 36.942997 -1.146735 13.745660 -40.798547 -1.808211 -11.318908 12.825944 -5.748731 -495.394058 -176.733549 -454.151736 -0.000003 0.000013 -0.000000 80.073033 2.189988 -4.569934 0.000001 -0.000001 -2.999990 -5.000162 -7.999949 0.000004 -122.298389 78.075114 129.211702 -111.572083 120.652805 99.513910 0.000001 0.000003 -0.000001 -0.027553 -3.637900 1.990811 0.000001 -0.000014 3.011608 -5.000156 7.999939 -0.000020 -1.869876 -182.294798 0.763718 -179.999991 0.000005 -1.055997 171.915766 -1.490050 -0.383629 -0.000001 -0.000004 0.155162 70.674822 6.849741 2.127498 25.456955 -7.355614 0.000001 -5.743598 176.632954 -1.066604 -0.000006 -0.000004 -1.022561 -12.366743 2.620922 0.639549 0.000004 0.000001 -0.191526 70.323163 -6.843484 -2.171874 25.456950 7.355612 -0.000000 
50.181705 -5.700865 84.194092 -1.847387 -0.249606 7.940849 -2.380707 0.514928 0.063122 -0.759328 1.029990 0.144998 0.885856 1.031676 0.130444 -0.831494 36.751305 -1.178074 13.584630 -40.602039 -1.847328 -11.363839 12.750908 -5.869924 -495.655954 -176.423691 -454.173757 -0.000003 0.000013 -0.000001 79.924797 2.195871 -4.567620 0.000001 -0.000001 -2.999990 -5.000163 -7.999947 0.000003 -121.913850 78.148948 128.811740 -111.450833 120.533482 99.433566 0.000002 0.000004 -0.000000 -0.027598 -3.637900 1.990808 0.000002 -0.000012 3.011610 -5.000157 7.999939 -0.000021 -1.875028 -182.285796 0.769582 -179.999991 0.000005 -1.055997 171.912651 -1.493015 -0.383122 -0.000001 -0.000004 0.155421 70.671284 6.849645 2.127497 25.456953 -7.355615 0.000001 -5.730976 176.637844 -1.067065 -0.000005 -0.000005 -1.022690 -12.368357 2.622243 0.639804 0.000004 0.000001 -0.191508 70.326244 -6.843476 -2.171781 25.456952 7.355613 -0.000000 
50.195099 -5.667046 84.192596 -1.845425 -0.241449 7.877302 -2.383949 0.510657 0.062353 -0.765780 1.021219 0.143665 0.879402 1.022890 0.128954 -0.698855 36.557857 -1.208499 13.422031 -40.404390 -1.886006 -11.409357 12.673208 -5.992746 -495.919272 -176.115226 -454.198100 -0.000004 0.000014 -0.000000 79.768003 2.202057 -4.565105 0.000001 -0.000001 -2.999992 -5.000163 -7.999950 0.000005 -121.515691 78.223472 128.397912 -111.323751 120.413462 99.349309 0.000001 0.000004 -0.000002 -0.027641 -3.637901 1.990818 0.000003 -0.000012 3.011614 -5.000155 7.999939 -0.000019 -1.880752 -182.275797 0.775408 -179.999991 0.000005 -1.055997 171.909072 -1.496951 -0.383776 -0.000001 -0.000004 0.155686 70.667842 6.849551 2.127394 25.456957 -7.355616 0.000001 -5.718946 176.641765 -1.067449 -0.000004 -0.000005 -1.022821 -12.370572 2.623472 0.640086 0.000004 0.000001 -0.191492 70.329304 -6.843434 -2.171785 25.456955 7.355613 -0.000000 
50.220802 -5.686905 84.195709 -1.843227 -0.233209 7.813624 -2.387115 0.506465 0.061579 -0.772106 1.012578 0.142320 0.873074 1.014242 0.127458 -0.566941 36.361458 -1.238361 13.258186 -40.204464 -1.924302 -11.455329 12.592066 -6.117180 -496.185103 -175.806296 -454.225065 -0.000003 0.000013 -0.000001 79.604496 2.208553 -4.562538 0.000001 -0.000002 -2.999992 -5.000162 -7.999946 0.000006 -121.100921 78.299082 127.967146 -111.189831 120.292458 99.260264 0.000001 0.000002 -0.000001 -0.027677 -3.637901 1.990814 0.000002 -0.000013 3.011612 -5.000154 7.999939 -0.000017 -1.887356 -182.266795 0.781468 -179.999991 0.000005 -1.055997 171.904537 -1.500896 -0.383461 -0.000001 -0.000004 0.155964 70.664516 6.849489 2.127287 25.456962 -7.355617 0.000000 -5.707426 176.646669 -1.067748 -0.000004 -0.000005 -1.022959 -12.373085 2.624600 0.640379 0.000005 0.000001 -0.191472 70.332254 -6.843358 -2.171889 25.456952 7.355613 -0.000002 
50.210403 -5.683345 84.196198 -1.840698 -0.225162 7.749903 -2.390222 0.502471 0.060807 -0.778326 1.004327 0.140966 0.866852 1.005975 0.125961 -0.435898 36.160709 -1.267939 13.093264 -40.001017 -1.962487 -11.501825 12.506800 -6.243149 -496.454704 -175.495099 -454.254981 -0.000002 0.000013 -0.000000 79.436589 2.215204 -4.559870 0.000001 -0.000001 -2.999990 -5.000162 -7.999948 0.000006 -120.666015 78.376209 127.515780 -111.047879 120.170253 99.165775 0.000002 0.000004 0.000001 -0.027706 -3.637899 1.990812 -0.000000 -0.000014 3.011609 -5.000155 7.999939 -0.000019 -1.895136 -182.255798 0.787857 -179.999991 0.000005 -1.055996 171.898499 -1.504836 -0.384184 -0.000001 -0.000005 0.156256 70.661729 6.849398 2.127243 25.456960 -7.355616 0.000000 -5.696397 176.651573 -1.067669 -0.000005 -0.000004 -1.023099 -12.375499 2.625630 0.640663 0.000005 0.000001 -0.191453 70.334904 -6.843339 -2.171826 25.456953 7.355614 0.000000 
